<svg width="395" height="399" viewBox="0 0 395 399" fill="none" xmlns="http://www.w3.org/2000/svg">
<path fill-rule="evenodd" clip-rule="evenodd" d="M185.537 0.0209496C186.24 0.3725 186.592 1.54433 186.475 2.71617C186.24 4.00519 185.889 9.98154 185.654 16.0751C185.42 22.1686 184.834 31.4261 184.482 36.5822C183.662 45.7225 183.662 46.1912 187.881 54.7456C190.108 59.5502 194.562 69.042 197.492 75.8387C200.539 82.6353 203.938 90.8381 205.11 94.0021C206.282 97.1661 208.744 103.26 210.619 107.478C212.612 111.697 214.838 115.681 215.776 116.384C216.714 117.204 219.644 118.025 222.34 118.493C227.145 119.197 227.379 119.079 227.379 116.267C227.379 114.626 228.669 110.056 230.31 105.955C231.951 101.971 233.24 97.8691 233.24 96.9317C233.24 95.9942 234.06 93.0646 235.115 90.4866C236.17 87.9086 238.514 83.9243 240.272 81.6978C242.03 79.4713 243.788 75.7215 244.14 73.495C244.726 69.9795 244.374 69.1592 241.913 67.8702C240.389 67.1671 236.756 63.4172 233.826 59.6673C230.896 56.0346 228.552 52.2848 228.552 51.4645C228.552 50.7614 231.364 48.4177 234.646 46.4256C238.045 44.3163 242.382 42.6757 244.374 42.5586C247.773 42.4414 247.89 42.5585 248.594 48.8865C248.945 52.402 250.117 57.3237 251.172 59.7845C252.227 62.1282 253.516 64.1203 253.985 64.1203C254.571 64.2375 255.743 63.0657 256.681 61.6595C257.97 59.7845 258.908 59.3158 260.08 60.1361C260.9 60.722 261.369 62.1282 260.9 63.1828C260.432 64.4719 260.783 65.2921 261.604 65.2921C262.424 65.4093 264.534 64.3547 266.292 62.9485C268.167 61.6595 270.394 59.0814 271.332 57.0893C272.269 55.0972 272.973 53.4566 272.738 53.2222C272.621 53.1051 271.332 52.2848 269.808 51.4645C268.402 50.7614 266.995 50.0583 266.643 50.0583C266.292 50.0583 266.057 50.8786 266.057 51.816C266.057 52.8707 265.237 53.4566 263.948 53.2222C262.424 52.9879 261.955 51.9332 262.19 48.3005C262.307 45.7225 262.893 43.0273 263.596 42.4414C264.417 41.6211 266.292 42.3242 269.222 44.4335C271.683 46.1912 274.613 47.7146 275.668 47.7146C276.84 47.7146 278.598 47.949 279.536 48.3005C280.474 48.6521 281.294 49.7067 281.294 50.6442C281.294 51.5817 280.005 54.3941 278.364 56.7377C276.723 59.1986 275.434 61.5423 275.434 62.011C275.434 62.5969 276.02 62.9485 276.723 62.9485C277.426 62.9485 280.005 60.9564 282.349 58.4955C284.693 56.1518 287.506 52.402 288.561 50.2927C290.319 47.1287 291.022 46.7772 293.015 47.7146C294.304 48.3005 295.359 49.7067 295.359 50.6442C295.359 51.5817 292.077 55.8003 280.708 67.4015L285.396 68.3389C287.975 68.8076 291.96 69.8623 294.187 70.917C296.414 71.8544 303.563 76.4246 310.01 81.1119C316.456 85.7993 323.84 90.721 326.418 92.01C328.997 93.299 334.037 95.1739 337.553 96.2286C341.069 97.2832 346.343 98.1035 349.274 98.2207C352.673 98.2207 355.017 97.5176 355.954 96.3458C356.892 95.2911 358.181 94.9396 359.236 95.4083C360.408 95.9942 362.049 95.2911 363.924 93.4162C365.565 91.7756 368.027 87.7914 369.316 84.6274C370.839 81.1119 372.129 74.784 373.301 59.1986L369.785 60.0189C367.089 60.722 365.917 60.4876 364.862 58.7299C363.924 57.2065 363.807 55.8003 364.51 54.3941C365.214 53.3394 366.503 52.402 367.441 52.402C368.378 52.402 369.433 51.6989 369.667 50.8786C369.902 49.9411 370.839 50.1755 372.715 51.816C374.121 53.1051 375.879 55.6831 378.106 61.1907L379.747 57.3237C381.505 53.5738 381.388 53.4566 377.755 49.7067C375.645 47.5974 373.887 45.6053 373.887 45.0194C373.887 44.5507 376.114 44.1991 378.81 44.1991C381.622 44.1991 384.904 44.9022 386.193 45.7225C387.483 46.66 390.061 49.9411 391.819 53.1051C394.632 58.144 395.101 60.0189 394.984 68.2217C394.867 75.7215 394.515 77.8308 392.874 79.0026C390.999 80.2916 390.999 80.4088 392.874 80.9947C394.398 81.5806 394.984 82.9868 394.984 86.6195C394.984 89.4319 394.281 94.0021 393.343 96.9317C392.405 99.8613 391.351 103.494 391.116 105.135C390.764 106.775 389.475 108.298 388.303 108.65C387.131 109.002 385.256 110.642 384.084 112.166C383.029 113.806 381.622 117.322 381.154 120.017C380.45 124.235 380.685 125.056 382.56 125.876C384.084 126.579 385.139 126.11 386.662 124.001C387.952 122.009 389.006 121.54 390.178 122.243C391.468 123.064 391.702 124.939 390.999 130.329C390.53 134.196 389.592 138.063 388.772 139.001C387.952 139.821 385.373 141.579 382.912 142.75C380.216 144.157 377.755 146.617 376.348 149.313C375.176 151.774 371.66 155.992 368.495 158.805C365.331 161.617 362.518 165.015 362.166 166.421C361.815 167.828 360.408 169.117 359.236 169.351C357.947 169.585 356.072 169.351 355.134 168.882C354.196 168.414 348.57 167.945 342.71 167.945C332.748 167.828 331.693 167.593 325.715 163.843C322.199 161.617 317.159 158.57 314.346 157.047C311.064 155.289 309.424 154.82 309.424 155.758C309.424 156.578 310.127 158.101 311.064 159.039C311.885 159.976 313.76 163.726 315.167 167.242C316.573 170.757 318.097 176.031 318.448 178.96C318.917 182.241 318.566 185.405 317.628 187.163C316.808 188.804 314.581 192.085 312.823 194.428C310.947 196.889 309.424 199.936 309.424 201.225C309.424 202.514 312.705 209.779 316.69 217.279C320.675 224.896 326.184 236.38 329.114 242.825C331.927 249.27 335.326 257.121 336.615 260.403C337.905 263.567 340.132 267.902 341.538 269.777C342.944 271.652 346.226 274.582 348.805 276.105C352.673 278.449 353.727 278.683 355.72 277.394C357.009 276.574 359.002 276.222 360.057 276.691C361.697 277.277 362.049 278.566 361.815 282.316C361.58 287.238 361.697 287.472 368.847 292.042C372.832 294.62 376.114 297.433 376.114 298.136C376.231 299.073 374.824 299.659 372.715 299.659C370.839 299.659 365.096 298.136 360.057 296.261C355.134 294.503 349.977 292.511 348.805 291.925C346.812 290.988 346.578 291.222 347.281 293.448C347.984 295.675 347.633 296.144 345.406 296.144C343.531 296.144 341.89 294.503 339.546 290.519C337.787 287.472 334.154 280.558 331.341 275.051C328.645 269.543 322.668 259.348 318.214 252.2C313.76 245.052 306.259 231.224 301.571 221.381C293.132 203.686 293.015 203.569 288.561 202.866C286.217 202.397 282.818 201.342 280.943 200.522C278.13 199.116 277.544 199.116 276.254 200.756C275.551 201.811 273.207 205.678 271.214 209.311C269.105 212.943 265.706 219.154 263.596 223.138C261.369 227.123 259.963 230.872 260.549 231.341C261.018 231.81 264.182 229.583 267.581 226.302C270.863 223.021 274.965 219.388 276.606 218.334C278.247 217.279 281.294 216.459 283.287 216.459C286.92 216.459 287.389 216.928 290.788 224.31C292.78 228.763 294.07 232.982 293.718 233.685C293.366 234.505 288.561 236.497 283.052 238.138C277.544 239.778 273.09 241.419 273.09 241.888C273.09 242.474 275.903 245.052 279.184 247.747C282.583 250.325 287.741 253.606 290.671 255.012C293.601 256.301 299.93 257.825 313.526 259.231L313.291 265.676C313.174 269.191 312.354 272.824 311.533 273.644C310.596 274.465 307.548 275.168 304.149 275.051C300.868 275.051 296.062 273.996 293.249 272.707C290.553 271.418 285.631 267.902 282.466 264.738C278.95 261.457 276.489 259.934 276.606 260.989C276.606 261.926 279.184 268.84 282.466 276.222C285.748 283.605 289.499 293.097 290.788 297.315C292.194 301.534 295.593 309.737 298.406 315.479C301.102 321.221 306.259 329.658 309.658 334.228C313.057 338.681 319.503 345.478 324.074 349.345C328.645 353.212 334.506 357.313 337.201 358.485C340.014 359.657 342.241 360.946 342.241 361.415C342.241 362.001 340.6 363.993 338.491 365.985C336.381 367.86 331.693 371.375 328.177 373.602C324.66 375.828 318.566 379.109 314.698 380.75C310.83 382.508 302.86 385.086 297.117 386.492C288.678 388.601 283.169 389.07 269.574 389.07C257.501 389.07 250.235 388.484 244.374 387.078C239.803 385.906 233.24 383.914 229.724 382.508C226.207 381.102 219.292 377 214.487 373.367C209.681 369.735 201.946 362.821 197.492 358.134C192.921 353.329 187.412 346.532 185.068 343.017C182.724 339.501 178.505 334.58 175.692 332.119C172.879 329.658 168.659 326.846 166.432 325.791C164.205 324.736 160.689 323.447 158.814 322.979C156.822 322.51 148.734 319.697 140.647 316.768C132.56 313.721 123.066 309.971 119.55 308.213C116.034 306.456 111.111 303.175 108.533 300.831C106.071 298.604 101.852 293.566 99.039 289.698C96.3433 285.831 92.4755 279.738 90.483 276.222C88.3733 272.238 85.7947 264.387 83.8022 255.715C82.0442 247.981 78.528 233.45 76.0667 223.49C72.5505 209.076 71.8472 204.975 73.0193 203.803C73.8397 202.983 76.3011 201.694 78.528 200.991C80.9893 200.17 89.5453 199.936 100.563 200.17C117.558 200.639 118.378 200.522 119.081 198.295C119.55 197.006 119.667 191.967 118.964 178.374L125.996 178.491C131.739 178.491 134.435 179.312 140.647 182.71C144.867 184.936 154.595 190.913 162.33 195.952C170.066 200.991 179.794 207.319 184.013 210.014C188.233 212.709 194.093 216.224 197.14 217.982C200.305 219.74 203.704 221.146 204.759 221.146C206.282 221.146 207.103 219.857 207.689 216.224C208.158 213.412 208.861 203.217 210.033 176.031L201.946 167.828C195.265 161.148 193.39 158.336 191.749 153.18C190.694 149.664 189.874 145.094 189.874 143.219C189.991 141.227 190.577 137.829 191.397 135.602C192.218 133.376 194.327 129.626 196.085 127.399C197.726 125.173 199.133 122.243 199.25 120.954C199.25 119.665 196.672 112.751 193.507 105.72C190.46 98.5723 187.061 90.135 186.006 86.9711C184.951 83.6899 181.904 73.9637 179.091 65.2921C176.395 56.6206 172.762 46.5428 171.121 43.0273C169.363 39.5118 167.37 34.2385 166.55 31.3089C165.729 28.3794 164.909 24.8638 164.557 23.3405C164.323 21.8171 164.674 20.7624 165.495 20.7624C166.315 20.7624 168.19 21.9343 169.597 23.4576C171.824 25.5669 172.41 25.6841 172.879 24.2779C173.23 23.3405 174.52 19.3562 175.809 15.4892C177.098 11.6221 179.559 6.46604 181.2 4.00519C182.841 1.54433 184.834 -0.213417 185.537 0.0209496ZM236.522 53.691C236.639 54.2769 238.28 56.6206 240.272 58.847C242.147 61.0735 244.14 62.9485 244.609 62.9485C245.195 62.9485 244.96 60.2533 244.257 57.0893C243.437 53.3394 242.382 51.2301 241.327 51.3473C240.389 51.3473 238.866 51.6989 237.928 52.0504C237.108 52.2848 236.404 53.1051 236.522 53.691Z" fill="#140F10"/>
<path d="M260.314 60.3705C258.439 59.0814 258.322 58.2612 259.259 55.6831C259.845 53.8082 260.783 52.402 261.135 52.402C261.604 52.402 262.658 52.8707 263.479 53.3394C264.534 53.9254 264.651 55.0972 263.713 58.0268C262.658 61.4251 262.307 61.6595 260.314 60.3705Z" fill="#140E11" fill-opacity="0.9"/>
<path d="M390.061 122.361C388.186 121.071 388.186 120.72 390.647 117.204C392.054 115.095 393.577 113.337 394.163 113.337C394.632 113.337 394.984 114.04 394.984 114.861C394.984 115.564 394.398 117.908 393.577 120.017C392.288 123.064 391.702 123.415 390.061 122.361Z" fill="#140E11" fill-opacity="0.9"/>
<path d="M345.757 300.245C344.82 300.245 343.882 299.308 343.648 298.253C343.335 296.847 343.921 296.144 345.406 296.144C346.695 296.144 347.516 296.964 347.516 298.253C347.516 299.308 346.695 300.245 345.757 300.245Z" fill="#140E11" fill-opacity="0.9"/>
<path d="M391.468 126.462C391.468 125.993 391.819 124.47 392.171 123.064V122.946C392.523 121.54 393.343 120.368 393.929 120.368C394.515 120.368 394.984 121.892 394.984 123.884C394.984 126.228 394.398 127.399 393.226 127.399C392.288 127.399 391.468 127.048 391.468 126.462Z" fill="#1A1418" fill-opacity="0.2"/>
<path d="M278.012 266.379C277.309 264.738 276.606 262.512 276.606 261.34C276.606 259.817 277.309 260.051 280.122 262.863C282.935 265.676 283.287 266.731 282.115 267.902C281.411 268.723 280.474 269.426 280.122 269.426C279.771 269.426 278.833 268.02 278.012 266.379Z" fill="#1A1418" fill-opacity="0.2"/>
<path d="M3.63338 264.738C5.62588 260.989 8.43883 257.356 9.72809 256.653C11.1346 255.832 13.1271 255.247 14.0647 255.129C15.0024 255.129 16.526 255.832 17.3465 256.887C18.4013 258.293 18.5185 260.285 17.4637 265.91C16.7604 270.012 16.526 274.933 16.9949 276.808C17.3465 278.683 18.5185 281.964 19.339 283.839C20.1594 285.714 21.2143 292.394 21.5659 298.487C22.0347 304.581 22.7379 311.612 24.0272 318.291L19.339 318.994C16.7604 319.463 13.2443 320.283 11.4862 320.869C9.61088 321.455 7.50118 321.69 6.79794 321.338C5.9775 321.104 4.92265 320.166 4.57103 319.346C4.10221 318.526 4.10221 314.424 4.57103 310.206C5.15706 305.401 4.92265 299.542 3.985 294.386C3.16456 289.816 1.9925 284.777 1.28927 282.902C0.58603 281.144 0 277.863 0 275.637C0 273.293 1.52368 268.605 3.63338 264.738Z" fill="#140F10"/>
<path d="M78.2935 278.918C78.1763 278.215 79.5828 277.043 81.5753 276.457C83.4506 275.754 85.5603 275.402 86.1463 275.519C86.8496 275.637 88.9593 280.793 91.069 286.886C93.1787 292.98 94.8196 299.308 94.9368 301.065C94.9368 303.878 94.3508 304.464 91.1862 305.05C89.0765 305.518 86.6152 305.518 85.9119 305.05C85.0915 304.698 83.8022 300.831 83.099 296.378C82.3958 292.042 81.1065 286.652 80.1688 284.425C79.2312 282.199 78.4108 279.738 78.2935 278.918Z" fill="#140F10"/>
<path d="M61.4159 286.417C61.0643 285.128 62.0019 283.839 64.2288 282.668C65.9869 281.73 67.745 281.027 68.331 280.91C68.7999 280.91 69.8547 283.722 70.7924 287.003C71.6128 290.402 73.2537 296.495 74.3085 300.479C75.3634 304.581 75.8322 308.096 75.3634 308.331C74.7774 308.565 72.9021 309.151 70.9096 309.503C68.5655 310.049 66.9636 309.815 66.1041 308.799C65.4009 307.979 64.2288 303.057 63.4084 297.901L63.4083 297.901C62.5879 292.745 61.7675 287.589 61.4159 286.417Z" fill="#140F10"/>
<path d="M42.8974 296.378C42.3113 293.214 42.6629 292.394 44.8899 291.573C46.2963 290.87 48.1716 290.402 48.9921 290.402C49.6953 290.284 50.8674 292.277 51.5706 294.62C52.1566 297.081 53.3287 301.534 54.1491 304.581C55.1649 308.253 55.2821 310.479 54.5007 311.26C53.9147 311.846 51.4534 312.549 45.1243 313.135L44.3038 306.69C43.9522 303.175 43.249 298.487 42.8974 296.378Z" fill="#140F10"/>
<path d="M30.3563 315.127C29.8875 314.659 29.3015 310.206 28.8327 305.167L28.1294 296.144H31.6456C35.0446 296.144 35.1618 296.378 36.3338 303.409C36.9199 307.51 37.7403 311.612 38.0919 312.549C38.5607 313.838 37.6231 314.541 34.9274 315.127C32.8177 315.713 30.7079 315.713 30.3563 315.127Z" fill="#140F10"/>
<path d="M147.093 334.697C145.335 333.174 145.453 332.822 148.5 330.361C150.258 328.955 152.602 327.783 153.54 327.783C154.477 327.666 158.814 331.181 163.033 335.634C167.253 339.97 171.355 344.54 172.058 345.829C173.113 347.822 172.996 348.642 171.355 350.165C170.3 351.22 168.19 352.626 166.667 353.329C165.26 354.032 163.619 354.735 163.151 354.735C162.682 354.735 159.283 350.634 155.649 345.595C152.016 340.556 148.265 335.752 147.093 334.697Z" fill="#140F10"/>
<path d="M85.6775 348.759C87.3184 345.243 89.7797 341.142 91.1862 339.736C92.5927 338.33 94.7024 337.041 95.7572 337.041C96.9293 337.041 98.453 337.627 99.2734 338.564C100.211 339.619 100.328 341.376 99.3906 345.243C98.6874 348.525 98.5702 355.79 99.039 363.993C99.5078 371.493 99.9766 380.281 100.094 383.562C100.211 388.133 99.5078 390.476 97.7497 392.937C96.3433 394.812 93.9991 397.039 92.4755 397.859C90.7174 398.914 88.3733 399.265 86.3808 398.796C84.6227 398.328 82.7474 397.156 82.1613 395.984C81.6925 394.812 81.5753 385.203 81.9269 374.539C82.6302 357.431 83.099 354.501 85.6775 348.759Z" fill="#140F10"/>
<path d="M129.864 345.361C129.747 345.126 130.919 343.603 132.443 342.197C133.966 340.673 135.724 339.384 136.428 339.384C137.131 339.384 139.006 340.791 140.647 342.431C142.288 344.189 145.57 348.759 147.914 352.743C150.375 356.727 152.368 360.243 152.368 360.477C152.368 360.829 150.258 362.118 147.562 363.407C142.757 365.751 142.64 365.751 141.35 363.524C140.647 362.352 137.834 357.899 135.021 353.564C132.208 349.345 129.864 345.712 129.864 345.361Z" fill="#140F10"/>
<path d="M115.799 358.602C115.682 358.134 116.854 356.493 118.378 354.97C119.902 353.446 122.011 352.392 122.949 352.626C124.004 352.743 127.051 356.259 129.747 360.243C132.56 364.227 134.787 368.329 134.787 369.266C134.787 370.321 132.677 372.078 125.41 375.711L120.722 367.508C118.144 363.055 115.917 358.954 115.799 358.602Z" fill="#140F10"/>
<path d="M106.54 373.368C104.196 366.102 104.196 365.751 106.189 364.344C107.361 363.524 108.884 362.821 109.588 362.821C110.174 362.821 112.518 366.688 118.612 379.813L115.917 381.922C114.393 383.094 112.166 384.031 110.994 384.031C109.939 384.031 109.001 383.328 109.001 382.508C109.001 381.688 107.947 377.586 106.54 373.368Z" fill="#140F10"/>
<path d="M88.7249 220.092C91.1862 217.162 94.7024 213.881 96.6949 212.709C98.6874 211.537 100.914 210.6 101.618 210.6C102.438 210.6 103.962 210.834 104.899 211.186C106.071 211.537 106.657 213.412 106.657 217.045C106.657 219.974 107.243 222.552 107.829 222.904C108.415 223.255 109.001 224.779 109.001 226.419C109.001 228.529 107.947 229.818 105.485 231.107C102.672 232.513 100.914 232.63 96.3432 231.693C93.2959 230.99 89.4281 229.818 87.5528 228.997C85.7947 228.177 84.3882 227.005 84.3882 226.419C84.3882 225.716 86.3807 222.904 88.7249 220.092Z" fill="#BE3D1E"/>
<path d="M115.917 281.73C116.268 281.261 119.198 280.207 122.48 279.269C125.645 278.332 129.161 277.511 130.216 277.511C131.857 277.394 132.091 278.449 131.622 284.66C131.271 288.761 130.685 292.394 130.216 292.98C129.864 293.448 127.403 294.386 124.824 294.972C122.246 295.558 118.73 296.144 113.69 296.144L114.393 289.347C114.862 285.714 115.448 282.316 115.917 281.73Z" fill="#BE3D1E"/>
<path d="M181.2 311.612C181.669 308.799 182.255 305.987 182.49 305.401C182.724 304.815 184.248 304.346 185.771 304.346C187.529 304.346 189.17 305.284 189.874 306.69C190.577 308.096 192.218 309.034 193.976 309.034C195.617 309.034 197.609 309.854 198.43 310.909C199.602 312.315 199.484 313.37 197.961 316.416C196.906 318.526 193.507 321.924 190.342 323.916C187.178 326.025 184.248 327.432 183.662 327.197C183.193 326.846 182.255 324.385 181.552 321.572C180.731 318.643 180.614 314.541 181.2 311.612Z" fill="#BE3D1E"/>
<path d="M303.68 352.626C305.907 352.392 308.486 351.454 309.424 350.517C310.244 349.579 312.119 348.876 313.409 349.111C314.698 349.345 316.456 350.751 317.394 352.392C318.448 354.384 318.683 357.665 318.331 362.352C317.98 366.219 317.276 369.852 316.808 370.321C316.339 370.907 313.76 370.321 311.182 369.032C308.603 367.743 304.735 364.93 302.626 362.821C299.813 360.009 298.758 358.016 299.109 355.907C299.344 353.446 300.164 352.86 303.68 352.626Z" fill="#BE3D1E"/>
<path d="M233.123 362.352L239.217 356.259L245.195 350.165L248.594 355.438C250.469 358.251 251.993 361.884 251.993 363.524C251.993 365.399 250.352 367.977 247.187 370.789C244.609 373.25 241.796 375.242 241.093 375.242C240.272 375.242 238.162 372.313 233.123 362.352Z" fill="#BE3D1E"/>
<path d="M338.725 158.57C336.498 158.219 333.802 157.047 332.865 156.109C331.341 154.586 332.396 154.352 342.593 154.352C351.969 154.352 353.962 154.703 353.962 156.109C353.962 157.281 352.321 158.101 348.453 158.57C345.289 158.922 340.952 158.922 338.725 158.57Z" fill="#1A1418" fill-opacity="0.2"/>
<path d="M97.7497 256.067C97.1637 252.903 97.5153 251.848 99.7422 250.091C101.266 249.036 103.493 248.098 104.665 248.098C105.72 248.098 108.767 249.036 111.463 250.208C115.565 251.965 116.151 252.551 115.565 255.129C115.096 256.77 114.51 259.934 114.159 262.16C113.69 264.387 112.518 266.965 111.463 267.785C110.408 268.605 108.415 269.191 107.009 269.191C105.368 269.191 103.376 267.785 102.086 266.027C100.211 263.332 99.5078 262.981 98.3357 264.27C97.5153 264.973 96.5776 265.676 96.226 265.676C95.7572 265.676 94.8196 264.387 94.1163 262.746C92.7098 260.051 92.8271 259.817 95.5228 259.817C98.2185 259.817 98.3357 259.465 97.7497 256.067Z" fill="#EBE5E5"/>
<path d="M150.141 295.323C150.961 293.566 152.133 291.691 152.836 291.222C153.54 290.636 155.415 290.402 157.056 290.519C159.048 290.753 160.338 291.925 161.158 294.151C161.979 296.495 161.979 298.019 160.924 299.659C159.752 301.534 159.752 302.706 160.924 305.401C162.096 308.214 162.096 309.151 160.572 310.674C159.634 311.729 157.642 312.666 156.235 312.549C154.712 312.549 153.54 312.081 153.54 311.377C153.54 310.674 152.719 310.206 151.782 310.206C150.844 310.206 150.024 311.26 150.024 312.549C150.024 313.838 149.789 314.893 149.438 314.893C149.086 314.893 147.797 314.424 146.507 313.721C145.218 313.018 144.163 312.081 144.163 311.377C144.163 310.674 145.218 309.971 146.507 309.62C147.797 309.268 148.851 308.565 148.851 307.862C148.851 307.159 148.148 306.807 147.445 306.807C146.625 306.924 144.984 306.924 143.929 306.807C142.288 306.69 141.936 305.753 142.171 302.94C142.405 299.659 142.874 299.073 145.687 298.839C147.914 298.604 149.203 297.55 150.141 295.323Z" fill="#EBE5E5"/>
<path d="M203.235 338.681C203.587 337.158 205.696 334.931 207.806 333.642C209.799 332.353 213.549 331.299 220.347 331.299L221.871 339.619C223.16 347.47 223.16 348.056 220.933 349.579C219.644 350.517 217.769 351.22 216.831 351.337C215.893 351.337 214.37 350.517 213.666 349.462C212.846 348.525 211.674 347.939 210.971 348.29C210.267 348.642 209.799 349.931 209.799 351.22C209.799 352.509 209.447 353.563 208.978 353.563C208.392 353.563 206.986 352.86 203.352 350.165L205.696 348.407C208.04 346.767 208.04 346.65 205.345 343.954C203.469 342.08 202.766 340.439 203.235 338.681Z" fill="#EBE5E5"/>
<path d="M272.386 360.946C271.918 357.665 272.269 355.907 273.793 354.501C274.848 353.329 276.606 352.392 277.661 352.392C278.716 352.274 280.474 353.212 281.646 354.384C282.818 355.556 283.755 357.899 283.755 359.774C283.638 362.235 284.224 362.938 285.982 362.938C287.272 362.938 288.913 363.993 289.499 365.282C290.202 366.571 290.671 367.86 290.671 368.211C290.671 368.563 289.499 369.852 288.092 371.141C286.568 372.43 284.459 373.25 283.404 372.899C281.646 372.43 281.294 372.899 281.646 375.477C281.88 378.172 281.294 378.875 278.95 379.227C276.606 379.578 276.137 379.344 276.958 377.703C277.544 376.297 276.958 375.594 274.027 374.891C270.746 374.071 270.16 373.368 269.925 370.204C269.691 367.704 270.16 366.258 271.332 365.868C272.621 365.399 272.973 364.227 272.386 360.946Z" fill="#EBE5E5"/>
</svg>
