<?xml version="1.0" encoding="iso-8859-1"?>
<!-- Generator: Adobe Illustrator 19.0.0, SVG Export Plug-In . SVG Version: 6.00 Build 0)  -->
<svg version="1.1" id="Capa_1" xmlns="http://www.w3.org/2000/svg" xmlns:xlink="http://www.w3.org/1999/xlink" x="0px" y="0px"
	 viewBox="0 0 512 512" style="enable-background:new 0 0 512 512;" xml:space="preserve">
<path style="fill:#F1F1F1;" d="M442.322,72.755H69.678c-18.785,0-33.245,16.585-30.687,35.195l22.195,161.434
	C74.569,366.722,157.745,439.245,256,439.245l0,0c98.254,0,181.431-72.523,194.814-169.862l22.195-161.434
	C475.567,89.34,461.106,72.755,442.322,72.755z"/>
<g>
	<path style="fill:#4A5058;" d="M341.518,412.767c0,2.292,0.085,4.563,0.241,6.815c43.769-21.238,78.715-58.304,96.993-104.332
		C385.024,315.405,341.518,359.003,341.518,412.767z"/>
	<path style="fill:#4A5058;" d="M170.483,412.767c0,2.292-0.085,4.563-0.241,6.815c-43.769-21.238-78.715-58.304-96.993-104.332
		C126.976,315.405,170.483,359.003,170.483,412.767z"/>
</g>
<path style="opacity:0.05;enable-background:new    ;" d="M442.322,72.755H69.678c-18.785,0-33.246,16.585-30.687,35.195
	l7.678,55.842h418.662l7.678-55.842C475.567,89.34,461.106,72.755,442.322,72.755z"/>
<path style="opacity:0.1;enable-background:new    ;" d="M126.812,163.792h15V72.755h-15V163.792z M370.188,72.755v91.037h15V72.755
	H370.188z M248.5,163.792h15V72.755h-15V163.792z"/>
<path style="opacity:0.05;enable-background:new    ;" d="M107.134,72.755H69.678c-18.785,0-33.246,16.585-30.687,35.195
	l22.195,161.434C74.569,366.722,157.745,439.245,256,439.245l0,0c40.862,0,79.111-12.553,110.822-34.208
	C103.308,404.769,105.48,132.163,107.134,72.755z"/>
<g>
	<path style="fill:#4A5058;" d="M177.82,253.534c-4.142,0-7.5-3.357-7.5-7.5v-12.978c0-4.143,3.358-7.5,7.5-7.5s7.5,3.357,7.5,7.5
		v12.978C185.32,250.177,181.962,253.534,177.82,253.534z"/>
	<path style="fill:#4A5058;" d="M334.18,253.534c-4.142,0-7.5-3.357-7.5-7.5v-12.978c0-4.143,3.358-7.5,7.5-7.5s7.5,3.357,7.5,7.5
		v12.978C341.68,250.177,338.322,253.534,334.18,253.534z"/>
	<path style="fill:#4A5058;" d="M256,263.5c-10.066,0-19.64-4.36-26.266-11.962c-2.722-3.122-2.396-7.86,0.726-10.582
		c3.122-2.721,7.859-2.398,10.582,0.727c3.776,4.332,9.228,6.817,14.958,6.817c5.729,0,11.182-2.485,14.958-6.817
		c2.721-3.123,7.46-3.447,10.582-0.727c3.122,2.722,3.448,7.46,0.726,10.582C275.64,259.14,266.066,263.5,256,263.5z"/>
</g>
<path style="fill:#76C9D2;" d="M102.26,206.721H43.643c-19.86,0-36.701-14.599-39.518-34.258l-3.905-27.25
	c-1.842-12.85,8.128-24.35,21.109-24.35h80.931c17.702,0,32.052,14.35,32.052,32.052v21.753
	C134.312,192.37,119.962,206.721,102.26,206.721z"/>
<path style="opacity:0.1;enable-background:new    ;" d="M33.365,172.462l-3.905-27.249c-1.842-12.85,8.128-24.35,21.109-24.35
	h-29.24c-12.981,0-22.951,11.501-21.109,24.35l3.905,27.249c2.817,19.659,19.658,34.258,39.518,34.258h29.24
	C53.023,206.721,36.182,192.122,33.365,172.462z"/>
<path style="fill:#76C9D2;" d="M409.74,206.721h58.617c19.86,0,36.701-14.599,39.518-34.258l3.905-27.249
	c1.842-12.85-8.128-24.35-21.109-24.35H409.74c-17.702,0-32.052,14.35-32.052,32.052v21.753
	C377.688,192.37,392.038,206.721,409.74,206.721z"/>
<path style="opacity:0.1;enable-background:new    ;" d="M406.147,174.669v-21.753c0-17.702,14.35-32.052,32.052-32.052H409.74
	c-17.702,0-32.052,14.35-32.052,32.052v21.753c0,17.702,14.35,32.052,32.052,32.052h28.459
	C420.497,206.721,406.147,192.37,406.147,174.669z"/>
<g>
</g>
<g>
</g>
<g>
</g>
<g>
</g>
<g>
</g>
<g>
</g>
<g>
</g>
<g>
</g>
<g>
</g>
<g>
</g>
<g>
</g>
<g>
</g>
<g>
</g>
<g>
</g>
<g>
</g>
</svg>
