<svg id="Capa_1" enable-background="new 0 0 512 512" height="512" viewBox="0 0 512 512" width="512" xmlns="http://www.w3.org/2000/svg"><g><g><g><path d="m0 369.694c0 55.836 45.264 101.099 101.099 101.099h309.802c55.835 0 101.099-45.264 101.099-101.099 0-55.835-45.264-101.099-101.099-101.099h-309.802c-55.835 0-101.099 45.263-101.099 101.099zm410.901 59.891h-309.802c-33.077 0-59.892-26.814-59.892-59.892 0-33.077 26.814-59.892 59.892-59.892h309.802c33.077 0 59.892 26.814 59.892 59.892 0 33.078-26.815 59.892-59.892 59.892z" fill="#fff2b4"/></g></g><g><path d="m101.099 470.793h309.802c55.835 0 101.099-45.264 101.099-101.099 0 11.379-9.225 20.604-20.604 20.604s-20.604-9.225-20.604-20.604c0 33.077-26.814 59.892-59.892 59.892h-309.801c-33.077 0-59.892-26.814-59.892-59.892 0 11.379-9.225 20.604-20.604 20.604s-20.603-9.225-20.603-20.604c0 55.835 45.264 101.099 101.099 101.099z" fill="#ffdf8e"/></g><g><g><path d="m282.366 43.146v-16.78c0-14.561-11.804-26.366-26.366-26.366-14.562 0-26.366 11.805-26.366 26.366v16.779c0 25.313-16.879 47.52-41.269 54.295-24.39 6.775-41.269 28.982-41.269 54.295v11.387h217.81v-11.387c0-25.313-16.879-47.52-41.269-54.295-24.391-6.774-41.271-28.981-41.271-54.294z" fill="#fff2b4"/></g><g><path d="m235.241 130.08c0-18.25 14.794-33.044 33.044-33.044h54.002c-23.658-7.208-39.92-29.048-39.92-53.89v-16.78c-.001-14.561-11.805-26.366-26.367-26.366s-26.366 11.805-26.366 26.366v16.779c0 25.313-16.879 47.52-41.269 54.295-24.39 6.775-41.269 28.982-41.269 54.295v11.387h121.19c-18.251.001-33.045-14.793-33.045-33.042z" fill="#ffdf8e"/></g><g><path d="m359.173 237.689h-206.346c-25.325 0-45.855-20.53-45.855-45.855 0-25.325 20.53-45.855 45.855-45.855h206.346c25.325 0 45.855 20.53 45.855 45.855 0 25.325-20.53 45.855-45.855 45.855z" fill="#b0d8fd"/></g><g><path d="m189.387 191.834c0-25.325 20.53-45.855 45.855-45.855h-82.414c-25.325 0-45.855 20.53-45.855 45.855 0 25.325 20.53 45.855 45.855 45.855h82.414c-25.325 0-45.855-20.53-45.855-45.855z" fill="#9ccefd"/></g></g><g><path d="m374.471 512h-236.942c-28.448 0-51.509-23.061-51.509-51.509v-181.595c0-28.448 23.061-51.509 51.509-51.509h236.942c28.448 0 51.509 23.061 51.509 51.509v181.595c0 28.448-23.062 51.509-51.509 51.509z" fill="#f7f0eb"/></g><g><path d="m158.133 460.491v-181.595c0-28.448 23.061-51.509 51.509-51.509h-72.113c-28.448 0-51.509 23.061-51.509 51.509v181.595c0 28.448 23.061 51.509 51.509 51.509h72.113c-28.448 0-51.509-23.061-51.509-51.509z" fill="#efe2dd"/></g><g><g><g><ellipse cx="173.951" cy="378.212" fill="#fda0c1" rx="30.274" ry="24.109"/></g><g><ellipse cx="338.049" cy="378.212" fill="#fda0c1" rx="30.274" ry="24.109"/></g><g><path d="m280.409 359.688c0-15.085-10.928-16.502-24.409-16.502-13.48 0-24.409 1.417-24.409 16.502s10.928 27.313 24.409 27.313c13.48 0 24.409-12.228 24.409-27.313z" fill="#6e6e6e"/></g></g><g><path d="m179.013 356.929c-4.142 0-7.5-3.358-7.5-7.5v-12.362c0-4.142 3.358-7.5 7.5-7.5s7.5 3.358 7.5 7.5v12.362c0 4.142-3.358 7.5-7.5 7.5z" fill="#6e6e6e"/></g><g><path d="m332.988 356.929c-4.142 0-7.5-3.358-7.5-7.5v-12.362c0-4.142 3.358-7.5 7.5-7.5s7.5 3.358 7.5 7.5v12.362c0 4.142-3.358 7.5-7.5 7.5z" fill="#6e6e6e"/></g></g></g></svg>