<svg height="511pt" viewBox="-2 0 511 511.99924" width="511pt" xmlns="http://www.w3.org/2000/svg">
    <g fill="#e02c68">
        <path
            d="m505.648438 126.875c-5.589844-10.398438-11.582032-19.980469-17.832032-28.808594l-55.828125 23.695313-12.109375 60.378906 25.160156 12.679687c8.976563 4.964844 20.222657 2.683594 26.546876-5.382812l32.125-39.746094c5.121093-6.546875 5.875-15.496094 1.9375-22.816406zm0 0" />
        <path
            d="m359.023438 447.074219-53.910157 23.039062c3.402344 10.578125 5.894531 20.554688 7.570313 28.117188 1.789062 8.050781 8.941406 13.769531 17.195312 13.769531h62.011719c8.691406 0 16.09375-6.355469 17.414063-14.945312 1.390624-9.066407 2.59375-18.0625 3.632812-26.941407zm0 0" />
        <path
            d="m3.003906 126.875c5.589844-10.398438 11.578125-19.980469 17.832032-28.808594l55.824218 23.695313 12.113282 60.378906-25.164063 12.679687c-8.972656 4.964844-20.21875 2.683594-26.542969-5.382812l-32.128906-39.746094c-5.117188-6.546875-5.871094-15.496094-1.933594-22.816406zm0 0" />
        <path
            d="m149.628906 447.074219 53.910156 23.039062c-3.402343 10.578125-5.894531 20.554688-7.570312 28.117188-1.792969 8.050781-8.945312 13.769531-17.195312 13.769531h-62.011719c-8.691407 0-16.09375-6.355469-17.414063-14.945312-1.390625-9.066407-2.597656-18.0625-3.632812-26.941407zm0 0" />
    </g>
    <path
        d="m487.816406 98.066406c-48.226562-68.074218-112.453125-91.222656-136.128906-97.742187-4.855469-1.339844-9.8125 1.613281-11.089844 6.488281-10.046875 38.261719-44.863281 66.480469-86.273437 66.480469-41.410157 0-76.226563-28.21875-86.269531-66.480469-1.28125-4.875-6.234376-7.828125-11.09375-6.488281-23.671876 6.519531-87.898438 29.667969-136.125 97.742187l67.9375 84.074219 28.378906-14.304687s-41.207032 133.15625-21.433594 302.277343h107.820312c9.382813-29.152343 25.65625-62.828125 50.789063-62.828125 25.128906 0 41.402344 33.675782 50.785156 62.828125h107.824219c19.769531-169.121093-21.4375-302.277343-21.4375-302.277343l28.378906 14.304687zm0 0"
        fill="#ec96c8" />
    <path
        d="m179.914062 188.582031c-4.265624 0-7.726562-3.457031-7.726562-7.726562v-13.464844c0-4.265625 3.460938-7.726563 7.726562-7.726563 4.265626 0 7.726563 3.460938 7.726563 7.726563v13.464844c0 4.269531-3.457031 7.726562-7.726563 7.726562zm0 0"
        fill="#545b67" />
    <path
        d="m328.734375 188.582031c-4.265625 0-7.726563-3.457031-7.726563-7.726562v-13.464844c0-4.265625 3.460938-7.726563 7.726563-7.726563 4.269531 0 7.726563 3.460938 7.726563 7.726563v13.464844c0 4.269531-3.457032 7.726562-7.726563 7.726562zm0 0"
        fill="#545b67" />
    <path
        d="m254.324219 195.773438c-9.386719 0-18.199219-3.925782-24.179688-10.769532-2.808593-3.210937-2.480469-8.09375.730469-10.902344 3.210938-2.808593 8.09375-2.480468 10.902344.730469 3.046875 3.488281 7.621094 5.484375 12.546875 5.484375 4.929687 0 9.503906-1.996094 12.550781-5.484375 2.808594-3.210937 7.6875-3.539062 10.902344-.730469 3.210937 2.808594 3.539062 7.691407.730468 10.902344-5.980468 6.84375-14.796874 10.769532-24.183593 10.769532zm0 0"
        fill="#545b67" />
</svg>